<?xml version="1.0" standalone="no"?>
<!DOCTYPE svg PUBLIC "-//W3C//DTD SVG 20010904//EN"
 "http://www.w3.org/TR/2001/REC-SVG-20010904/DTD/svg10.dtd">
<svg version="1.0" xmlns="http://www.w3.org/2000/svg"
 width="225.000000pt" height="225.000000pt" viewBox="0 0 225.000000 225.000000"
 preserveAspectRatio="xMidYMid meet">
<metadata>
Created by potrace 1.11, written by Peter Selinger 2001-2013
</metadata>
<g transform="translate(0.000000,225.000000) scale(0.100000,-0.100000)"
fill="#000000" stroke="none">
<path d="M1016 2130 c-425 -53 -767 -328 -903 -725 -72 -210 -71 -471 2 -685
121 -355 428 -628 795 -705 97 -21 346 -20 447 1 260 53 503 217 661 443 61
87 69 114 14 44 -267 -337 -756 -430 -1139 -217 -214 119 -360 310 -429 559
-29 107 -27 351 4 459 89 309 321 537 638 628 112 32 341 32 459 0 182 -50
372 -177 483 -326 44 -58 21 -7 -29 65 -117 169 -306 318 -493 390 -158 61
-359 88 -510 69z"/>
<path d="M1110 1686 c-24 -23 -28 -24 -74 -13 -48 11 -48 11 -77 -24 -16 -18
-32 -44 -35 -56 -3 -13 -12 -23 -18 -23 -15 0 -56 42 -56 57 0 7 -11 20 -25
31 -25 20 -90 21 -109 2 -14 -14 -36 -161 -27 -178 5 -10 4 -23 -2 -34 -9 -14
-7 -23 9 -45 12 -15 29 -30 40 -33 40 -11 61 -32 56 -57 -3 -18 1 -26 17 -30
12 -3 24 -16 27 -32 3 -14 8 -33 12 -41 3 -8 7 -28 9 -43 4 -41 49 -111 86
-137 18 -13 48 -43 67 -68 64 -81 196 -211 223 -217 22 -6 27 -13 27 -39 0
-46 43 -106 120 -165 23 -17 23 -21 10 -45 -18 -34 -2 -51 45 -48 25 2 35 -2
35 -12 0 -18 115 -105 186 -141 59 -30 80 -26 104 20 13 24 12 31 -6 63 -11
22 -19 55 -19 82 0 42 2 45 30 50 26 4 31 10 36 45 8 58 18 77 49 103 29 23
29 23 40 2 13 -24 42 -26 60 -5 10 13 10 23 -2 54 -15 38 -15 39 9 50 13 6 29
11 35 11 6 0 20 7 30 16 14 13 21 14 32 5 8 -7 25 -11 38 -9 17 2 24 10 26 33
5 59 3 68 -33 119 -34 48 -34 51 -15 58 11 4 27 5 35 2 19 -8 66 41 59 60 -3
9 -10 16 -15 16 -12 0 -72 60 -86 85 -6 10 -26 23 -44 29 -32 11 -34 13 -31
54 2 25 17 67 38 104 44 77 55 145 29 164 -25 19 -75 18 -103 -2 -12 -8 -37
-14 -55 -12 -27 3 -32 7 -33 31 -2 43 -57 89 -103 86 -20 -2 -43 1 -51 6 -8 6
-30 15 -48 22 -29 10 -36 9 -49 -7 -14 -16 -18 -17 -38 -4 -21 14 -55 10 -55
-6 0 -21 -34 -18 -62 5 -34 29 -38 30 -63 11 -15 -11 -26 -10 -68 5 -33 12
-55 15 -66 9 -13 -6 -30 1 -67 25 -27 19 -51 34 -54 35 -3 0 -17 -11 -30 -24z"/>
</g>
</svg>
